<svg width="154" height="26" viewBox="0 0 154 26" fill="none" xmlns="http://www.w3.org/2000/svg">
<path d="M3.15865 6.18646C3.57279 6.18646 3.98288 6.26098 4.36547 6.40576C4.74807 6.55054 5.09567 6.76274 5.38843 7.03024C5.68118 7.29774 
5.91334 7.61529 6.07165 7.96475C6.22996 8.31421 6.31131 8.68874 6.31105 9.06692V13.4582H21.6952V9.06513C21.6956 8.52488 21.8624 7.99563 
22.1767 7.53789C22.4909 7.08015 22.9399 6.7124 23.4722 6.47669C24.0045 6.24098 24.5988 6.14682 25.187 6.20499C25.7752 6.26315 26.3335 
6.47128 26.7983 6.80559C27.263 7.13989 27.6154 7.58688 27.8151 8.09543C28.0147 8.60399 28.0536 9.15359 27.9273 9.68139C27.8011 10.2092 
27.5147 10.6939 27.1009 11.0801C26.6872 11.4662 26.1628 11.7383 25.5877 11.8651V20.1507C25.5872 20.3758 25.4891 20.5915 25.3147 
20.7507C25.1404 20.9099 24.9042 20.9995 24.6577 21H3.35053C3.10402 20.9995 2.86776 20.9099 2.69345 20.7507C2.51915 20.5915 2.42099 
20.3758 2.42047 20.1507V11.8651C1.66896 11.7013 1.0095 11.2912 0.567317 10.7126C0.125137 10.134 -0.0689657 9.42734 0.0218697 8.72669C0.112705 
8.02605 0.482153 7.38027 1.06005 6.91198C1.63795 6.44369 2.38602 6.18551 3.15865 6.18646ZM5.23219 4.58799C5.08658 4.53184 4.93827 4.48173 
4.78772 4.4378V1.98289C4.78875 1.4579 5.01732 0.954633 5.42347 0.583077C5.82963 0.21152 6.38034 0.0018893 6.95524 0H21.049C21.6243 0.00141759 
22.1755 0.21084 22.5821 0.582448C22.9887 0.954056 23.2175 1.45759 23.2185 1.98289V4.4378C23.068 4.48173 22.9197 4.53184 22.7741 4.58799C21.8099 
4.95981 20.9872 5.58307 20.4091 6.37976C19.8309 7.17646 19.523 8.11118 19.5237 9.06692V11.4753H8.48249V9.06692C8.48251 8.11133 8.17424 7.17692 
7.59619 6.38036C7.01813 5.5838 6.19591 4.96039 5.23219 4.58799Z" fill="#780096"/>
<path d="M57.166 17.3681C55.6143 18.7084 53.363 19.4654 50.426 19.632V21.5556H45.9164V19.632C42.9724 19.4167 40.728 18.6459 39.1764 
17.3334C37.6247 16.0209 36.8489 14.2154 36.8489 11.9376C36.8489 9.65286 37.6247 7.85425 39.1694 6.52786C40.7142 5.20147 42.9655 4.43064 
45.9234 4.21536V2.41675H50.4329V4.21536C53.3769 4.41675 55.6213 5.18064 57.1729 6.50008C58.7246 7.82647 59.5004 9.63897 59.5004 
11.9376C59.4935 14.2154 58.7177 16.0279 57.166 17.3681ZM42.6953 14.5626C43.4088 15.1806 44.4825 15.5765 45.9095 15.764V8.09036C44.4133 
8.25703 43.3257 8.64592 42.6468 9.26397C41.968 9.88203 41.6216 10.7709 41.6216 11.9376C41.6216 13.0695 41.9749 13.9445 42.6953 
14.5626ZM53.6748 14.5834C54.3675 13.9515 54.7069 13.0556 54.7069 11.9098C54.7069 10.757 54.3536 9.87508 53.6471 9.26397C52.9405 
8.64592 51.8668 8.25703 50.419 8.09036V15.7848C51.9014 15.6181 52.9821 15.2154 53.6748 14.5834Z" fill="#780096"/>
<path d="M72.4334 8.50005C73.611 9.52783 74.1998 11.0973 74.1998 13.2084V20.7292H69.7872V18.9792C69.1084 20.2987 67.7784 20.9514 
65.7972 20.9514C64.7512 20.9514 63.8438 20.7709 63.0818 20.4028C62.3198 20.0348 61.7379 19.5417 61.35 18.9167C60.9621 18.2917 
60.7612 17.5764 60.7612 16.7778C60.7612 15.4931 61.2531 14.5001 62.2298 13.7917C63.2134 13.0834 64.7235 12.7292 66.767 12.7292H69.4616C69.3785 
11.2987 68.4226 10.5834 66.5938 10.5834C65.9427 10.5834 65.2915 10.6876 64.6265 10.8959C63.9615 11.1042 63.3935 11.3889 62.9294 
11.757L61.3362 8.53478C62.0843 8.03478 62.9918 7.64589 64.0654 7.37505C65.1391 7.09728 66.2128 6.96533 67.2935 6.96533C69.5378 
6.96533 71.2488 7.47228 72.4334 8.50005ZM68.5681 17.5556C68.9837 17.2917 69.2815 16.8959 69.4686 16.382V15.2084H67.4251C66.0466 
15.2084 65.3539 15.6667 65.3539 16.5834C65.3539 17.0001 65.5132 17.3334 65.8249 17.5834C66.1436 17.8334 66.5731 17.9584 67.1203 
17.9584C67.6675 17.9584 68.1524 17.8264 68.5681 17.5556Z" fill="#780096"/>
<path d="M83.3711 15.9097H81.7779V20.7292H77.0398V7.1875H81.7779V12.1875H83.4751L86.7931 7.1875H91.8014L87.2642 13.6875L92.0993 
20.7361H86.516L83.3711 15.9097Z" fill="#780096"/>
<path d="M105.683 10.9583H101.347V20.7292H96.6365V10.9583H92.2725V7.1875H105.683V10.9583Z" fill="#780096"/>
<path d="M122.08 7.18761L116.247 21.2779C115.568 22.9446 114.737 24.1112 113.753 24.7918C112.77 25.4654 111.578 25.8057 110.165 
25.8057C109.452 25.8057 108.731 25.6946 108.011 25.4654C107.29 25.2432 106.702 24.9446 106.251 24.5765L107.9 21.2501C108.163 
21.5001 108.489 21.6946 108.863 21.8404C109.237 21.9793 109.618 22.0557 109.999 22.0557C110.449 22.0557 110.816 21.9654 111.107 
21.7779C111.398 21.5973 111.641 21.3057 111.841 20.9029L106.057 7.18066H110.92L114.238 15.4515L117.577 7.18066H122.08V7.18761Z" fill="#780096"/>
<path d="M135.484 7.82655C136.488 8.40294 137.285 9.21544 137.873 10.2779C138.462 11.3335 138.76 12.5627 138.76 13.9654C138.76 
15.3682 138.462 16.5904 137.873 17.6529C137.285 18.7085 136.488 19.5279 135.484 20.1043C134.479 20.6807 133.364 20.9654 132.131 
20.9654C130.552 20.9654 129.298 20.4932 128.369 19.5418V25.5904H123.631V7.18766H128.141V8.53489C129.021 7.48627 130.351 6.9585 
132.131 6.9585C133.357 6.96544 134.472 7.25016 135.484 7.82655ZM133.177 16.3196C133.71 15.7432 133.973 14.9585 133.973 13.9585C133.973 
12.9585 133.71 12.1738 133.177 11.5974C132.643 11.021 131.965 10.7363 131.133 10.7363C130.302 10.7363 129.623 11.021 129.09 
11.5974C128.556 12.1738 128.293 12.9585 128.293 13.9585C128.293 14.9585 128.556 15.7432 129.09 16.3196C129.623 16.896 130.302 
17.1807 131.133 17.1807C131.965 17.1807 132.643 16.896 133.177 16.3196Z" fill="#780096"/>
<path d="M151.374 8.50005C152.552 9.52783 153.141 11.0973 153.141 13.2084V20.7292H148.728V18.9792C148.049 20.2987 146.719 
20.9514 144.738 20.9514C143.692 20.9514 142.785 20.7709 142.023 20.4028C141.261 20.0348 140.679 19.5417 140.291 18.9167C139.903 
18.2917 139.702 17.5764 139.702 16.7778C139.702 15.4931 140.194 14.5001 141.171 13.7917C142.154 13.0834 143.664 12.7292 145.708 
12.7292H148.403C148.319 11.2987 147.363 10.5834 145.535 10.5834C144.884 10.5834 144.232 10.6876 143.567 10.8959C142.902 11.1042 
142.334 11.3889 141.87 11.757L140.277 8.53478C141.025 8.03478 141.933 7.64589 143.006 7.37505C144.08 7.09728 145.154 6.96533 
146.234 6.96533C148.479 6.96533 150.19 7.47228 151.374 8.50005ZM147.509 17.5556C147.925 17.2917 148.222 16.8959 148.409 
16.382V15.2084H146.366C144.988 15.2084 144.295 15.6667 144.295 16.5834C144.295 17.0001 144.454 17.3334 144.766 17.5834C145.084 
17.8334 145.514 17.9584 146.061 17.9584C146.608 17.9584 147.093 17.8264 147.509 17.5556Z" fill="#780096"/>
</svg>
