<svg width="0" height="0" class="hidden">
  <symbol fill="white" xmlns="http://www.w3.org/2000/svg" viewBox="0 0 16 16" id="icon-heart">
    <path d="M8.41331 13.8733C8.18665 13.9533 7.81331 13.9533 7.58665 13.8733C5.65331 13.2133 1.33331 10.46 1.33331 
    5.79332C1.33331 3.73332 2.99331 2.06665 5.03998 2.06665C6.25331 2.06665 7.32665 2.65332 7.99998 3.55998C8.67331 
    2.65332 9.75331 2.06665 10.96 2.06665C13.0066 2.06665 14.6666 3.73332 14.6666 5.79332C14.6666 10.46 10.3466 13.2133 
    8.41331 13.8733Z" stroke="currentColor" stroke-linecap="round" stroke-linejoin="round">
    </path>
  </symbol>

  <symbol fill="none" xmlns="http://www.w3.org/2000/svg" viewBox="0 0 16 16" id="icon-cart">
    <path d="M5.87336 1.33325L3.46002 3.75325" stroke="currentColor" stroke-miterlimit="10" stroke-linecap="round" stroke-linejoin="round"></path>
    <path d="M10.1266 1.33325L12.54 3.75325" stroke="currentColor" stroke-miterlimit="10" stroke-linecap="round" stroke-linejoin="round"></path>
    <path d="M1.33331 5.23324C1.33331 3.9999 1.99331 3.8999 2.81331 3.8999H13.1866C14.0066 3.8999 14.6666 3.9999 14.6666 
    5.23324C14.6666 6.66657 14.0066 6.56657 13.1866 6.56657H2.81331C1.99331 6.56657 1.33331 6.66657 1.33331 5.23324Z" stroke="currentColor"></path>
    <path d="M6.50665 9.33325V11.6999" stroke="currentColor" stroke-linecap="round"></path>
    <path d="M9.5733 9.33325V11.6999" stroke="currentColor" stroke-linecap="round"></path>
    <path d="M2.33331 6.66675L3.27331 12.4267C3.48665 13.7201 3.99998 14.6667 5.90665 14.6667H9.92665C12 14.6667 12.3066 
    13.7601 12.5466 12.5067L13.6666 6.66675" stroke="currentColor" stroke-linecap="round"></path>
  </symbol>

  <symbol fill="currentColor" xmlns="http://www.w3.org/2000/svg" viewBox="0 0 16 16" id="icon-phone">
    <path d="M4.48572 1.54445L5.59257 1.21074C5.95787 1.10078 6.3507 1.12746 6.69778 1.2858C7.04486 1.44415 7.32248 1.72334 
    7.47886 2.07131L8.25486 3.79703C8.38954 4.09641 8.42708 4.43046 8.36221 4.75227C8.29734 5.07408 8.1333 5.36749 7.89315 
    5.59131L6.712 6.69188C6.55372 6.84217 6.67372 7.42788 7.252 8.43017C7.83086 9.43303 8.27829 9.8296 8.48457 9.76788L10.032 
    9.29474C10.3457 9.1988 10.6815 9.20341 10.9924 9.30794C11.3033 9.41246 11.5737 9.61166 11.7657 9.8776L12.8686 11.4062C13.0913 
    11.7148 13.1945 12.0939 13.1588 12.4728C13.1232 12.8518 12.9512 13.205 12.6749 13.4667L11.8223 14.2742C11.5471 14.5348 11.2076 
    14.7178 10.8386 14.8044C10.4696 14.891 10.0842 14.8782 9.72172 14.7673C7.93543 14.2205 6.28115 12.5976 4.73657 9.9216C3.18857 
    7.2416 2.604 4.98103 3.01143 3.13417C3.09361 2.76203 3.27354 2.41853 3.53269 2.1391C3.79183 1.85966 4.12081 1.65439 4.48572 
    1.54445Z" fill="currentColor">
    </path>
  </symbol>

  <symbol fill="currentColor" xmlns="http://www.w3.org/2000/svg" viewBox="0 0 16 16" id="icon-vk">
      <path d="M8.00001 0.320068C3.75841 0.320068 0.320007 3.75847 0.320007 8.00007C0.320007 12.2417 3.75841 15.6801 8.00001 
      15.6801C12.2416 15.6801 15.68 12.2417 15.68 8.00007C15.68 3.75847 12.2416 0.320068 8.00001 0.320068ZM10.9536 8.98487C10.9536 
      8.98487 11.6328 9.65527 11.8 9.96647C11.8048 9.97287 11.8072 9.97927 11.8088 9.98247C11.8768 10.0969 11.8928 10.1857 11.8592 
      10.2521C11.8032 10.3625 11.6112 10.4169 11.5456 10.4217H10.3456C10.2624 10.4217 10.088 10.4001 9.87681 10.2545C9.71441 
      10.1409 9.55441 9.95447 9.39841 9.77287C9.16561 9.50247 8.96401 9.26887 8.76081 9.26887C8.735 9.26882 8.70935 9.27287 8.68481 
      9.28087C8.53121 9.33047 8.33441 9.54967 8.33441 10.1337C8.33441 10.3161 8.19041 10.4209 8.08881 10.4209H7.53921C7.35201 
      10.4209 6.37681 10.3553 5.51281 9.44407C4.45521 8.32807 3.50321 6.08967 3.49521 6.06887C3.43521 5.92407 3.55921 5.84647 
      3.69441 5.84647H4.90641C5.06801 5.84647 5.12081 5.94487 5.15761 6.03207C5.20081 6.13367 5.35921 6.53767 5.61921 6.99207C6.04081 
      7.73287 6.29921 8.03367 6.50641 8.03367C6.54526 8.03321 6.58342 8.02333 6.61761 8.00487C6.88801 7.85447 6.83761 6.89047 6.82561 
      6.69047C6.82561 6.65287 6.82481 6.25927 6.68641 6.07047C6.58721 5.93367 6.41841 5.88167 6.31601 5.86247C6.35745 5.80528 6.41206 
      5.7589 6.47521 5.72727C6.66081 5.63447 6.99521 5.62087 7.32721 5.62087H7.51201C7.87201 5.62567 7.96481 5.64887 8.09521 
      5.68167C8.35921 5.74487 8.36481 5.91527 8.34161 6.49847C8.33441 6.66407 8.32721 6.85127 8.32721 7.07207C8.32721 7.12007 
      8.32481 7.17127 8.32481 7.22567C8.31681 7.52247 8.30721 7.85927 8.51681 7.99767C8.54415 8.01481 8.57574 8.02396 8.60801 
      8.02407C8.68081 8.02407 8.90001 8.02407 9.49361 7.00567C9.67668 6.67788 9.83576 6.33725 9.96961 5.98647C9.98161 5.96567 
      10.0168 5.90167 10.0584 5.87687C10.0891 5.86122 10.1231 5.85326 10.1576 5.85367H11.5824C11.7376 5.85367 11.844 5.87687 
      11.864 5.93687C11.8992 6.03207 11.8576 6.32247 11.2072 7.20327L10.9168 7.58647C10.3272 8.35927 10.3272 8.39847 10.9536 
      8.98487Z" fill="currentColor">
      </path>
  </symbol>

  <symbol fill="currentColor" xmlns="http://www.w3.org/2000/svg" viewBox="0 0 14 10" id="icon-youtube">
    <path d="M5.66665 6.99992L9.12665 4.99992L5.66665 2.99992V6.99992ZM13.3733 1.77992C13.46 2.09325 13.52 2.51325 13.56 
    3.04658C13.6066 3.57992 13.6266 4.03992 13.6266 4.43992L13.6666 4.99992C13.6666 6.45992 13.56 7.53325 13.3733 8.21992C13.2066 
    8.81992 12.82 9.20658 12.22 9.37325C11.9066 9.45992 11.3333 9.51992 10.4533 9.55992C9.58665 9.60658 8.79331 9.62659 8.05998 
    9.62659L6.99998 9.66658C4.20665 9.66658 2.46665 9.55992 1.77998 9.37325C1.17998 9.20658 0.793313 8.81992 0.626646 8.21992C0.53998 
    7.90658 0.47998 7.48659 0.43998 6.95325C0.393313 6.41992 0.373313 5.95992 0.373313 5.55992L0.333313 4.99992C0.333313 3.53992 
    0.43998 2.46659 0.626646 1.77992C0.793313 1.17992 1.17998 0.793252 1.77998 0.626585C2.09331 0.539919 2.66665 0.479919 3.54665 
    0.439919C4.41331 0.393252 5.20665 0.373252 5.93998 0.373252L6.99998 0.333252C9.79331 0.333252 11.5333 0.439919 12.22 0.626585C12.82 
    0.793252 13.2066 1.17992 13.3733 1.77992Z" fill="currentColor">
    </path>
  </symbol>

  <symbol fill="currentColor" xmlns="http://www.w3.org/2000/svg" viewBox="0 0 16 16" id="icon-tg">
    <path d="M16 8C16 10.1217 15.1571 12.1566 13.6569 13.6569C12.1566 15.1571 10.1217 16 8 16C5.87827 16 3.84344 15.1571 2.34315 
    13.6569C0.842855 12.1566 0 10.1217 0 8C0 5.87827 0.842855 3.84344 2.34315 2.34315C3.84344 0.842855 5.87827 0 8 0C10.1217 0 
    12.1566 0.842855 13.6569 2.34315C15.1571 3.84344 16 5.87827 16 8ZM8.287 5.906C7.509 6.23 5.953 6.9 3.621 7.916C3.243 8.066 
    3.044 8.214 3.026 8.358C2.996 8.601 3.301 8.697 3.716 8.828L3.891 8.883C4.299 9.016 4.849 9.171 5.134 9.177C5.394 9.183 
    5.683 9.077 6.002 8.857C8.181 7.386 9.306 6.643 9.376 6.627C9.426 6.615 9.496 6.601 9.542 6.643C9.589 6.684 9.584 6.763 
    9.579 6.784C9.549 6.913 8.352 8.025 7.733 8.601C7.54 8.781 7.403 8.908 7.375 8.937C7.31334 9.00001 7.25067 9.06202 7.187 
    9.123C6.807 9.489 6.523 9.763 7.202 10.211C7.529 10.427 7.791 10.604 8.052 10.782C8.336 10.976 8.62 11.169 8.988 11.411C9.081 
    11.471 9.171 11.536 9.258 11.598C9.589 11.834 9.888 12.046 10.255 12.012C10.469 11.992 10.69 11.792 10.802 11.192C11.067 9.775 
    11.588 6.706 11.708 5.441C11.7153 5.33584 11.711 5.2302 11.695 5.126C11.6856 5.04192 11.6449 4.96446 11.581 4.909C11.49 4.84619 
    11.3815 4.81365 11.271 4.816C10.971 4.821 10.508 4.982 8.287 5.906Z" fill="currentColor"></path>
  </symbol>

  <symbol fill="none" xmlns="http://www.w3.org/2000/svg" viewBox="0 0 16 16" id="icon-search">
    <path fill-rule="evenodd" clip-rule="evenodd" d="M7.66665 2.08325C4.58306 2.08325 2.08331 4.583 2.08331 7.66659C2.08331 10.7502 
    4.58306 13.2499 7.66665 13.2499C10.7502 13.2499 13.25 10.7502 13.25 7.66659C13.25 4.583 10.7502 2.08325 7.66665 2.08325ZM0.583313 
    7.66659C0.583313 3.75457 3.75463 0.583252 7.66665 0.583252C11.5787 0.583252 14.75 3.75457 14.75 7.66659C14.75 11.5786 11.5787 
    14.7499 7.66665 14.7499C3.75463 14.7499 0.583313 11.5786 0.583313 7.66659Z" fill="currentColor"></path>
    <path fill-rule="evenodd" clip-rule="evenodd" d="M12.803 12.8029C13.0959 12.51 13.5707 12.51 13.8636 12.8029L15.197 14.1363C15.4899 
    14.4291 15.4899 14.904 15.197 15.1969C14.9041 15.4898 14.4292 15.4898 14.1363 15.1969L12.803 13.8636C12.5101 13.5707 12.5101 13.0958 
    12.803 12.8029Z" fill="currentColor"></path>
  </symbol>

  <symbol fill="none" xmlns="http://www.w3.org/2000/svg" viewBox="0 0 32 32" id="arrow-right">
    <rect width="32" height="32" rx="16" transform="matrix(-1 0 0 1 32 0)" fill="white" fill-opacity="0.4"></rect>
    <path d="M20.136 16.0001L14.4747 10.1821C14.4281 10.1352 14.3913 10.0796 14.3663 10.0183C14.3413 9.95711 14.3288 9.89155 14.3293 
    9.82544C14.3299 9.75933 14.3435 9.69398 14.3695 9.63318C14.3955 9.57239 14.4332 9.51734 14.4806 9.47124C14.528 9.42513 14.5841 
    9.38888 14.6455 9.36458C14.707 9.34028 14.7727 9.32842 14.8388 9.32968C14.9049 9.33094 14.9701 9.34529 15.0306 9.37191C15.0912 
    9.39854 15.1458 9.43689 15.1914 9.48477L21.1914 15.6514C21.2822 15.7448 21.333 15.8699 21.333 16.0001C21.333 16.1303 21.2822 
    16.2554 21.1914 16.3488L15.1914 22.5154C15.1458 22.5633 15.0912 22.6017 15.0306 22.6283C14.9701 22.6549 14.9049 22.6693 14.8388 
    22.6705C14.7727 22.6718 14.707 22.6599 14.6455 22.6356C14.5841 22.6113 14.528 22.5751 14.4806 22.529C14.4332 22.4829 14.3955 
    22.4278 14.3695 22.367C14.3435 22.3062 14.3299 22.2409 14.3293 22.1748C14.3288 22.1087 14.3413 22.0431 14.3663 21.9819C14.3913 
    21.9207 14.4281 21.865 14.4747 21.8181L20.136 16.0001Z" fill="#1C1C1C"></path>
  </symbol>

   <symbol fill="none" xmlns="http://www.w3.org/2000/svg" viewBox="0 0 32 32" id="arrow-left">
    <rect width="32" height="32" rx="16" fill="white" fill-opacity="0.4"></rect>
    <path d="M11.864 16.0001L17.5253 10.1821C17.5719 10.1352 17.6087 10.0796 17.6337 10.0183C17.6587 9.95711 17.6712 9.89155 
    17.6707 9.82544C17.6701 9.75933 17.6565 9.69398 17.6305 9.63318C17.6045 9.57239 17.5668 9.51734 17.5194 9.47124C17.472 
    9.42513 17.4159 9.38888 17.3545 9.36458C17.293 9.34028 17.2273 9.32842 17.1612 9.32968C17.0951 9.33094 17.0299 9.34529 
    16.9694 9.37191C16.9088 9.39854 16.8542 9.43689 16.8086 9.48477L10.8086 15.6514C10.7178 15.7448 10.667 15.8699 10.667 
    16.0001C10.667 16.1303 10.7178 16.2554 10.8086 16.3488L16.8086 22.5154C16.8542 22.5633 16.9088 22.6017 16.9694 22.6283C17.0299 
    22.6549 17.0951 22.6693 17.1612 22.6705C17.2273 22.6718 17.293 22.6599 17.3545 22.6356C17.4159 22.6113 17.472 22.5751 17.5194 
    22.529C17.5668 22.4829 17.6045 22.4278 17.6305 22.367C17.6565 22.3062 17.6701 22.2409 17.6707 22.1748C17.6712 22.1087 17.6587 
    22.0431 17.6337 21.9819C17.6087 21.9207 17.5719 21.865 17.5253 21.8181L11.864 16.0001Z" fill="#1C1C1C"></path>
  </symbol>

</svg>